<?xml version="1.0" encoding="UTF-8"?>
<svg width="1775px" height="998px" viewBox="0 0 1775 998" version="1.1" xmlns="http://www.w3.org/2000/svg" xmlns:xlink="http://www.w3.org/1999/xlink">
    <!-- Generator: Sketch 41 (35326) - http://www.bohemiancoding.com/sketch -->
    <title>antiboards_reverse</title>
    <desc>Created with Sketch.</desc>
    <defs></defs>
    <g id="Normal" stroke="none" stroke-width="1" fill="none" fill-rule="evenodd">
        <path d="M8.5643915,370.852126 C-36.6815418,154.62153 105.466101,-10.9293388 326.049359,1.08333002 L837.265151,28.9234574 C864.843437,30.4253338 909.559029,30.4252055 937.134957,28.9234574 L1448.35075,1.08333002 C1668.93879,-10.9295991 1811.08195,154.619876 1765.83562,370.852126 L1749.24244,450.150903 C1743.58651,477.180638 1743.58795,521.011401 1749.24244,548.034231 L1765.83562,627.333008 C1811.08161,843.563605 1668.93401,1009.1145 1448.35075,997.101858 L937.134957,969.261798 C909.556672,967.759925 864.84108,967.760054 837.265151,969.261798 L326.049359,997.101858 C105.46132,1009.11476 -36.6818879,843.565258 8.5643915,627.333008 L25.1575436,548.034231 C30.8134757,521.004497 30.8120311,477.173734 25.1575436,450.150903 L8.5643915,370.852126 Z" id="antiboards_reverse" fill="#000000"></path>
    </g>
</svg>